<svg xmlns="http://www.w3.org/2000/svg" width="900" height="1100" viewBox="0 0 900 1100" data-engine="comic-panel-engine" data-rarity="Common" data-pipeline="comic-renderer" data-composition="Common-panel-withdrawn">
  <defs>
    <filter id="softShadow"><feDropShadow dx="0" dy="8" stdDeviation="8" flood-color="#000" flood-opacity="0.42"/></filter>
    <filter id="roughPaper"><feTurbulence type="fractalNoise" baseFrequency="0.72" numOctaves="4" seed="717"/><feColorMatrix type="saturate" values="0"/><feComponentTransfer><feFuncA type="table" tableValues="0 0.18"/></feComponentTransfer></filter>
    <linearGradient id="keyLight" x1="0" y1="0" x2="1" y2="1"><stop stop-color="#7cff38"/><stop offset="0.48" stop-color="#3dd6ff"/><stop offset="1" stop-color="#101018"/></linearGradient>
    <radialGradient id="eventGlow" cx="45%" cy="28%" r="72%"><stop stop-color="#101018" stop-opacity="0.9"/><stop offset="0.48" stop-color="#7cff38" stop-opacity="0.32"/><stop offset="1" stop-color="#f2d34f" stop-opacity="0"/></radialGradient>
  </defs>
  <rect width="900" height="1100" fill="#8d7cff"/><rect x="36" y="48" width="594" height="792" fill="#101018" stroke="#f2d34f" stroke-width="10"/><rect x="594" y="84" width="234" height="242" fill="#7cff38" stroke="#f2d34f" stroke-width="10"/><g><path d="M667 175 L483 581" stroke="#f2d34f" stroke-width="2" opacity="0.45"/><path d="M96 2 L314 418" stroke="#f2d34f" stroke-width="3" opacity="0.45"/><path d="M605 849 L145 175" stroke="#f2d34f" stroke-width="4" opacity="0.45"/><path d="M34 596 L156 1032" stroke="#f2d34f" stroke-width="5" opacity="0.45"/><path d="M543 423 L887 869" stroke="#f2d34f" stroke-width="2" opacity="0.45"/><path d="M872 170 L718 626" stroke="#f2d34f" stroke-width="3" opacity="0.45"/><path d="M301 1097 L549 463" stroke="#f2d34f" stroke-width="4" opacity="0.45"/><text x="72" y="150" fill="#f2d34f" font-size="42" font-weight="900" font-family="Inter, Arial, sans-serif">BANG</text></g><g transform="rotate(-4 396 572)" filter="url(#softShadow)">
      <path d="M321.12 431.6 Q405.36 345.79999999999995 508.32 470.6 Q494.28 609.44 411.6 667.16 Q291.48 643.76 321.12 431.6Z" fill="#7cff38" stroke="#f2d34f" stroke-width="11"/>
      <path d="M263.4 657.8 L544.2 639.08 L477.12 813.8 H324.24Z" fill="#3dd6ff" stroke="#f2d34f" stroke-width="11"/>
      <ellipse cx="357" cy="529.88" rx="16.24" ry="13.919999999999998" fill="#101018" stroke="#f2d34f" stroke-width="7"/>
      <ellipse cx="450.6" cy="513.56" rx="28" ry="13.919999999999998" fill="#101018" stroke="#f2d34f" stroke-width="7"/>
      <path d="M355.44 607.88 q58 24 124 -12" stroke="#f2d34f" stroke-width="12" fill="none"/>
      <path d="M481.8 620.36 l138 -80" stroke="#f2d34f" stroke-width="18" stroke-linecap="round"/>
    </g><g font-family="Inter, Arial, sans-serif">
    <text x="42" y="1036" fill="#f2d34f" font-size="24" font-weight="900">Patient Zero Microscopic Crypt Coin</text>
    <text x="42" y="1064" fill="#3dd6ff" font-size="13" font-weight="800">Common / Hantavirus Crypt Calm 1</text>
  </g>
</svg>