<svg xmlns="http://www.w3.org/2000/svg" width="900" height="1100" viewBox="0 0 900 1100" data-engine="comic-panel-engine" data-rarity="Mythic" data-pipeline="comic-renderer" data-composition="Mythic-panel-withdrawn">
  <defs>
    <filter id="softShadow"><feDropShadow dx="0" dy="14" stdDeviation="18" flood-color="#000" flood-opacity="0.42"/></filter>
    <filter id="roughPaper"><feTurbulence type="fractalNoise" baseFrequency="0.72" numOctaves="4" seed="225"/><feColorMatrix type="saturate" values="0"/><feComponentTransfer><feFuncA type="table" tableValues="0 0.18"/></feComponentTransfer></filter>
    <linearGradient id="keyLight" x1="0" y1="0" x2="1" y2="1"><stop stop-color="#7cff38"/><stop offset="0.48" stop-color="#3dd6ff"/><stop offset="1" stop-color="#101018"/></linearGradient>
    <radialGradient id="eventGlow" cx="45%" cy="28%" r="72%"><stop stop-color="#101018" stop-opacity="0.9"/><stop offset="0.48" stop-color="#7cff38" stop-opacity="0.32"/><stop offset="1" stop-color="#f2d34f" stop-opacity="0"/></radialGradient>
  </defs>
  <path d="M0 0 H900 V1100 H0Z" fill="#8d7cff"/><path d="M28 28 H872 V1072 H28Z" fill="#101018" stroke="#f2d34f" stroke-width="12"/><path d="M45 792 L828 176" stroke="#f2d34f" stroke-width="18"/><path d="M162 198 L882 374 L738 616.0000000000001 Z" fill="#3dd6ff" stroke="#f2d34f" stroke-width="9"/><g><path d="M572 780 L388 86" stroke="#f2d34f" stroke-width="2" opacity="0.45"/><path d="M1 527 L219 1023" stroke="#f2d34f" stroke-width="3" opacity="0.45"/><path d="M510 354 L50 780" stroke="#f2d34f" stroke-width="4" opacity="0.45"/><path d="M839 101 L61 537" stroke="#f2d34f" stroke-width="5" opacity="0.45"/><path d="M268 1028 L792 374" stroke="#f2d34f" stroke-width="2" opacity="0.45"/><path d="M777 775 L623 131" stroke="#f2d34f" stroke-width="3" opacity="0.45"/><path d="M206 602 L454 988" stroke="#f2d34f" stroke-width="4" opacity="0.45"/><path d="M715 349 L285 825" stroke="#f2d34f" stroke-width="5" opacity="0.45"/><path d="M144 176 L116 582" stroke="#f2d34f" stroke-width="2" opacity="0.45"/><path d="M473 1023 L847 339" stroke="#f2d34f" stroke-width="3" opacity="0.45"/><path d="M82 770 L678 176" stroke="#f2d34f" stroke-width="4" opacity="0.45"/><path d="M411 597 L689 1033" stroke="#f2d34f" stroke-width="5" opacity="0.45"/><path d="M20 344 L520 790" stroke="#f2d34f" stroke-width="2" opacity="0.45"/><path d="M349 171 L351 627" stroke="#f2d34f" stroke-width="3" opacity="0.45"/><path d="M678 1018 L182 384" stroke="#f2d34f" stroke-width="4" opacity="0.45"/><path d="M287 845 L13 141" stroke="#f2d34f" stroke-width="5" opacity="0.45"/><path d="M616 592 L744 1078" stroke="#f2d34f" stroke-width="2" opacity="0.45"/><path d="M225 419 L575 835" stroke="#f2d34f" stroke-width="3" opacity="0.45"/><path d="M554 166 L586 592" stroke="#f2d34f" stroke-width="4" opacity="0.45"/><path d="M163 1013 L417 429" stroke="#f2d34f" stroke-width="5" opacity="0.45"/><path d="M492 840 L248 186" stroke="#f2d34f" stroke-width="2" opacity="0.45"/><path d="M821 587 L79 1043" stroke="#f2d34f" stroke-width="3" opacity="0.45"/><path d="M430 414 L810 880" stroke="#f2d34f" stroke-width="4" opacity="0.45"/><path d="M759 161 L641 637" stroke="#f2d34f" stroke-width="5" opacity="0.45"/><path d="M368 1088 L472 394" stroke="#f2d34f" stroke-width="2" opacity="0.45"/><path d="M697 835 L483 231" stroke="#f2d34f" stroke-width="3" opacity="0.45"/><path d="M126 662 L314 1088" stroke="#f2d34f" stroke-width="4" opacity="0.45"/><path d="M635 409 L145 845" stroke="#f2d34f" stroke-width="5" opacity="0.45"/><path d="M64 236 L876 682" stroke="#f2d34f" stroke-width="2" opacity="0.45"/><path d="M573 1083 L707 439" stroke="#f2d34f" stroke-width="3" opacity="0.45"/><text x="72" y="150" fill="#f2d34f" font-size="78" font-weight="900" font-family="Inter, Arial, sans-serif">BREAK</text></g><g transform="rotate(-24 522 484)" filter="url(#softShadow)">
      <path d="M379.92 217.60000000000002 Q539.76 54.80000000000001 735.12 291.6 Q708.48 555.04 551.6 664.56 Q323.68 620.16 379.92 217.60000000000002Z" fill="#7cff38" stroke="#f2d34f" stroke-width="11"/>
      <path d="M270.4 646.8 L803.2 611.28 L675.92 942.8 H385.84000000000003Z" fill="#3dd6ff" stroke="#f2d34f" stroke-width="11"/>
      <ellipse cx="448" cy="404.08" rx="16.24" ry="42" fill="#101018" stroke="#f2d34f" stroke-width="7"/>
      <ellipse cx="625.6" cy="370.96" rx="45" ry="28" fill="#101018" stroke="#f2d34f" stroke-width="7"/>
      <path d="M445.04 552.08 q88 68 172 -24" stroke="#f2d34f" stroke-width="12" fill="none"/>
      <path d="M684.8 575.76 l230 -150" stroke="#f2d34f" stroke-width="28" stroke-linecap="round"/>
    </g><g font-family="Inter, Arial, sans-serif">
    <text x="42" y="1036" fill="#f2d34f" font-size="24" font-weight="900">Lab Specimen Inferred</text>
    <text x="42" y="1064" fill="#3dd6ff" font-size="13" font-weight="800">Mythic / Hantavirus Crypt Calm 4</text>
  </g>
</svg>